<svg xmlns="http://www.w3.org/2000/svg" viewBox="0 0 1314 496" role="img" aria-label="AiSH wordmark-tagline white">
<title>AiSH wordmark-tagline white</title>
<path d="M 810 400 L 810 433 L 817 433 L 817 400 Z M 524 400 L 517 400 L 517 401 L 515 404 L 515 406 L 513 409 L 513 411 L 511 414 L 511 416 L 509 419 L 509 421 L 508 422 L 507 422 L 505 419 L 505 417 L 504 416 L 504 415 L 503 414 L 503 412 L 501 409 L 501 407 L 500 406 L 500 404 L 499 403 L 499 401 L 498 400 L 491 400 L 491 402 L 492 403 L 492 405 L 494 408 L 494 410 L 496 413 L 496 415 L 497 416 L 497 417 L 498 418 L 498 420 L 500 423 L 500 425 L 501 426 L 501 428 L 503 431 L 503 436 L 502 437 L 502 439 L 501 440 L 501 441 L 499 443 L 493 443 L 493 444 L 491 447 L 491 448 L 492 449 L 495 449 L 496 450 L 499 450 L 500 449 L 502 449 L 507 444 L 507 443 L 508 442 L 508 440 L 510 437 L 510 435 L 511 434 L 511 432 L 513 429 L 513 427 L 515 424 L 515 422 L 518 417 L 518 415 L 520 412 L 520 410 L 521 409 L 521 407 L 523 404 L 523 402 L 524 401 Z M 350 400 L 350 433 L 351 434 L 356 434 L 357 433 L 357 401 L 356 400 Z M 269 400 L 269 405 L 268 406 L 268 417 L 269 418 L 269 422 L 268 423 L 268 432 L 269 433 L 273 433 L 274 434 L 276 432 L 276 429 L 275 428 L 275 421 L 276 420 L 276 418 L 275 417 L 275 411 L 276 410 L 276 405 L 275 404 L 275 400 Z M 195 400 L 195 433 L 196 434 L 197 433 L 200 433 L 201 434 L 202 433 L 202 400 Z M 1182 400 L 1181 401 L 1178 402 L 1175 405 L 1175 406 L 1173 408 L 1173 410 L 1172 411 L 1172 414 L 1171 415 L 1171 419 L 1172 420 L 1172 423 L 1173 424 L 1174 427 L 1179 432 L 1180 432 L 1183 434 L 1193 434 L 1194 433 L 1196 433 L 1202 429 L 1202 428 L 1198 424 L 1196 426 L 1195 426 L 1192 428 L 1186 428 L 1181 425 L 1181 424 L 1180 423 L 1179 420 L 1180 419 L 1203 419 L 1203 410 L 1202 409 L 1201 406 L 1196 401 L 1195 401 L 1194 400 L 1191 400 L 1190 399 L 1186 399 L 1185 400 Z M 1179 411 L 1180 410 L 1180 409 L 1183 406 L 1184 406 L 1185 405 L 1191 405 L 1192 406 L 1193 406 L 1195 408 L 1195 409 L 1196 410 L 1196 413 L 1195 414 L 1180 414 L 1179 413 Z M 970 401 L 969 401 L 968 400 L 966 400 L 965 399 L 961 399 L 960 400 L 957 400 L 954 403 L 953 403 L 952 402 L 952 400 L 945 400 L 945 433 L 946 434 L 947 433 L 952 433 L 952 413 L 953 412 L 953 410 L 957 406 L 958 406 L 959 405 L 962 405 L 963 406 L 964 406 L 967 409 L 967 410 L 968 411 L 968 433 L 975 433 L 975 410 L 974 409 L 974 406 L 973 405 L 973 404 Z M 906 399 L 905 400 L 903 400 L 902 401 L 901 401 L 895 407 L 895 408 L 894 409 L 894 411 L 893 412 L 893 421 L 894 422 L 894 425 L 896 427 L 896 428 L 900 432 L 901 432 L 902 433 L 904 433 L 905 434 L 914 434 L 915 433 L 917 433 L 918 432 L 921 431 L 923 429 L 923 428 L 919 424 L 916 427 L 914 427 L 913 428 L 907 428 L 902 425 L 902 424 L 901 423 L 900 420 L 901 419 L 924 419 L 924 410 L 923 409 L 922 406 L 917 401 L 916 401 L 915 400 L 913 400 L 912 399 Z M 900 411 L 901 410 L 901 409 L 904 406 L 905 406 L 906 405 L 911 405 L 916 408 L 916 409 L 917 410 L 917 413 L 916 414 L 901 414 L 900 413 Z M 871 400 L 865 400 L 865 402 L 864 403 L 863 403 L 860 400 L 857 400 L 856 399 L 851 399 L 850 400 L 848 400 L 847 401 L 846 401 L 841 406 L 841 407 L 839 410 L 839 414 L 838 415 L 838 417 L 839 418 L 839 422 L 840 423 L 840 425 L 841 426 L 841 427 L 845 431 L 846 431 L 851 434 L 857 434 L 858 433 L 861 432 L 863 430 L 864 430 L 865 431 L 865 436 L 864 437 L 864 438 L 860 442 L 859 442 L 858 443 L 851 443 L 850 442 L 848 442 L 847 441 L 844 440 L 841 443 L 841 445 L 842 445 L 844 447 L 845 447 L 848 449 L 851 449 L 852 450 L 857 450 L 858 449 L 861 449 L 862 448 L 865 447 L 869 443 L 869 442 L 870 441 L 870 439 L 871 438 L 871 435 L 872 434 L 872 433 L 871 432 L 871 431 L 872 430 L 872 419 L 871 418 Z M 854 405 L 857 405 L 858 406 L 861 407 L 863 409 L 863 410 L 865 413 L 865 419 L 864 420 L 864 422 L 860 426 L 859 426 L 858 427 L 852 427 L 851 426 L 850 426 L 847 423 L 847 422 L 846 421 L 846 412 L 847 411 L 847 410 L 851 406 L 853 406 Z M 706 400 L 704 402 L 703 402 L 699 406 L 699 407 L 697 410 L 697 413 L 696 414 L 696 421 L 697 422 L 697 424 L 698 425 L 699 428 L 702 431 L 703 431 L 705 433 L 707 433 L 708 434 L 719 434 L 720 433 L 723 432 L 725 430 L 726 430 L 726 428 L 724 426 L 724 425 L 723 424 L 722 425 L 721 425 L 719 427 L 717 427 L 716 428 L 710 428 L 709 427 L 708 427 L 704 423 L 704 420 L 705 419 L 727 419 L 728 418 L 728 413 L 727 412 L 727 409 L 726 408 L 726 407 L 724 405 L 724 404 L 719 400 L 716 400 L 715 399 L 710 399 L 709 400 Z M 704 410 L 708 406 L 709 406 L 710 405 L 715 405 L 716 406 L 717 406 L 719 408 L 719 409 L 720 410 L 721 413 L 720 414 L 705 414 L 704 413 Z M 633 402 L 632 402 L 630 400 L 627 400 L 626 399 L 622 399 L 621 400 L 619 400 L 616 402 L 615 402 L 614 401 L 614 400 L 607 400 L 607 433 L 608 434 L 612 434 L 613 433 L 614 433 L 614 412 L 615 411 L 616 408 L 618 406 L 620 406 L 621 405 L 624 405 L 625 406 L 626 406 L 628 408 L 628 409 L 629 410 L 629 433 L 636 433 L 636 423 L 637 422 L 637 415 L 636 414 L 636 407 Z M 382 403 L 382 405 L 384 408 L 385 408 L 388 406 L 390 406 L 391 405 L 396 405 L 397 406 L 398 406 L 401 409 L 401 410 L 402 411 L 402 412 L 401 413 L 388 413 L 387 414 L 385 414 L 383 416 L 382 416 L 382 417 L 380 419 L 380 421 L 379 422 L 379 425 L 380 426 L 380 428 L 382 430 L 382 431 L 387 434 L 396 434 L 397 433 L 398 433 L 400 431 L 401 431 L 402 432 L 402 433 L 409 433 L 409 410 L 408 409 L 408 407 L 407 406 L 407 405 L 403 401 L 402 401 L 401 400 L 398 400 L 397 399 L 392 399 L 391 400 L 388 400 L 387 401 L 385 401 L 383 403 Z M 386 425 L 386 422 L 389 419 L 390 419 L 391 418 L 401 418 L 402 419 L 402 422 L 401 423 L 401 424 L 398 427 L 397 427 L 396 428 L 389 428 Z M 312 399 L 311 400 L 309 400 L 308 401 L 305 402 L 301 406 L 301 407 L 299 410 L 299 413 L 298 414 L 298 419 L 299 420 L 299 423 L 300 424 L 300 426 L 306 432 L 307 432 L 308 433 L 310 433 L 311 434 L 320 434 L 321 433 L 324 432 L 326 430 L 327 430 L 327 428 L 325 426 L 325 425 L 324 424 L 323 424 L 320 427 L 318 427 L 317 428 L 313 428 L 312 427 L 311 427 L 307 423 L 307 422 L 306 421 L 306 412 L 307 411 L 307 410 L 311 406 L 313 406 L 314 405 L 316 405 L 317 406 L 319 406 L 320 407 L 321 407 L 323 409 L 324 409 L 325 408 L 325 407 L 327 405 L 327 404 L 324 401 L 323 401 L 322 400 L 319 400 L 318 399 Z M 134 399 L 131 399 L 130 400 L 128 400 L 125 403 L 124 403 L 123 402 L 123 400 L 117 400 L 116 401 L 116 433 L 121 433 L 122 434 L 123 433 L 123 414 L 124 413 L 124 411 L 125 410 L 125 409 L 127 407 L 128 407 L 129 406 L 135 406 L 135 400 Z M 1001 391 L 1000 392 L 1000 399 L 999 400 L 995 400 L 995 406 L 999 406 L 1000 407 L 1000 426 L 1001 427 L 1001 429 L 1002 430 L 1002 431 L 1004 433 L 1005 433 L 1006 434 L 1014 434 L 1017 432 L 1017 430 L 1016 429 L 1016 427 L 1015 427 L 1014 428 L 1010 428 L 1007 425 L 1007 407 L 1008 406 L 1016 406 L 1016 400 L 1008 400 L 1007 399 L 1007 391 Z M 662 391 L 661 392 L 661 399 L 660 400 L 657 400 L 656 401 L 656 405 L 657 406 L 660 406 L 661 407 L 661 425 L 662 426 L 662 429 L 663 430 L 663 431 L 664 432 L 665 432 L 667 434 L 675 434 L 676 433 L 678 433 L 678 429 L 677 428 L 677 427 L 676 427 L 675 428 L 671 428 L 669 426 L 669 407 L 670 406 L 677 406 L 677 400 L 670 400 L 669 399 L 669 395 L 668 394 L 668 391 Z M 158 391 L 158 392 L 157 393 L 158 394 L 158 397 L 157 398 L 157 399 L 156 400 L 152 400 L 152 406 L 156 406 L 157 407 L 157 425 L 158 426 L 158 429 L 159 430 L 159 431 L 161 433 L 162 433 L 163 434 L 171 434 L 174 432 L 174 429 L 173 428 L 173 427 L 172 427 L 171 428 L 167 428 L 165 426 L 165 425 L 164 424 L 164 407 L 165 406 L 173 406 L 173 400 L 165 400 L 164 399 L 164 391 Z M 582 386 L 576 386 L 575 387 L 575 433 L 576 433 L 577 434 L 578 433 L 582 433 L 583 432 L 583 426 L 582 425 L 582 422 L 583 421 L 583 420 L 582 419 L 582 415 L 583 414 L 583 387 Z M 71 386 L 69 388 L 69 389 L 68 390 L 68 392 L 67 393 L 67 394 L 66 395 L 66 397 L 63 402 L 63 404 L 62 405 L 62 407 L 61 408 L 61 409 L 60 410 L 60 412 L 57 417 L 57 419 L 55 422 L 55 424 L 53 427 L 53 429 L 52 430 L 51 433 L 52 434 L 57 434 L 58 433 L 59 433 L 59 431 L 61 428 L 61 426 L 62 425 L 62 424 L 64 422 L 84 422 L 87 427 L 87 429 L 88 430 L 88 432 L 90 434 L 96 434 L 97 433 L 96 432 L 96 430 L 95 429 L 95 428 L 94 427 L 94 425 L 91 420 L 91 418 L 90 417 L 90 415 L 87 410 L 87 408 L 85 405 L 85 403 L 83 400 L 83 398 L 81 395 L 81 393 L 80 392 L 80 390 L 79 389 L 79 388 L 77 386 Z M 73 397 L 75 397 L 76 398 L 76 400 L 77 401 L 77 403 L 78 404 L 78 406 L 79 407 L 79 408 L 80 409 L 80 411 L 81 412 L 81 414 L 80 415 L 67 415 L 66 414 L 66 413 L 67 412 L 67 410 L 70 405 L 70 403 L 71 402 L 71 400 Z M 1079 385 L 1078 386 L 1075 386 L 1074 387 L 1073 387 L 1071 389 L 1070 389 L 1070 390 L 1068 392 L 1068 393 L 1067 394 L 1067 396 L 1066 397 L 1066 401 L 1067 402 L 1067 404 L 1068 405 L 1068 406 L 1071 409 L 1072 409 L 1077 412 L 1080 412 L 1083 414 L 1086 414 L 1087 415 L 1088 415 L 1090 417 L 1090 418 L 1091 419 L 1091 423 L 1087 427 L 1085 427 L 1084 428 L 1081 428 L 1080 427 L 1077 427 L 1076 426 L 1074 426 L 1072 424 L 1071 424 L 1070 423 L 1069 423 L 1065 427 L 1069 431 L 1070 431 L 1073 433 L 1075 433 L 1076 434 L 1088 434 L 1089 433 L 1092 432 L 1097 428 L 1097 427 L 1098 426 L 1098 424 L 1099 423 L 1099 416 L 1098 415 L 1098 414 L 1094 410 L 1093 410 L 1088 407 L 1086 407 L 1085 406 L 1083 406 L 1082 405 L 1080 405 L 1079 404 L 1076 403 L 1074 400 L 1074 396 L 1078 392 L 1087 392 L 1092 395 L 1094 395 L 1094 394 L 1097 391 L 1097 389 L 1096 389 L 1091 386 L 1088 386 L 1087 385 Z M 813 384 L 810 386 L 810 387 L 809 388 L 809 390 L 812 393 L 815 393 L 818 390 L 818 387 L 815 384 Z M 352 384 L 349 387 L 349 390 L 352 393 L 355 393 L 357 391 L 358 388 L 357 387 L 357 386 L 355 384 Z M 270 384 L 268 386 L 268 391 L 271 393 L 273 393 L 276 391 L 277 388 L 276 387 L 276 386 L 274 384 Z M 197 384 L 194 387 L 194 390 L 197 393 L 200 393 L 203 390 L 203 387 L 200 384 Z M 1256 383 L 1255 384 L 1255 433 L 1262 433 L 1262 384 L 1261 383 Z M 1225 383 L 1224 384 L 1224 433 L 1225 433 L 1226 434 L 1230 434 L 1231 433 L 1231 383 Z M 1122 383 L 1121 384 L 1121 433 L 1122 434 L 1123 433 L 1128 433 L 1128 412 L 1129 411 L 1130 408 L 1135 405 L 1138 405 L 1139 406 L 1140 406 L 1143 409 L 1143 411 L 1144 412 L 1144 433 L 1145 434 L 1146 433 L 1148 433 L 1149 434 L 1150 433 L 1151 433 L 1151 410 L 1150 409 L 1150 406 L 1149 405 L 1149 404 L 1146 401 L 1145 401 L 1144 400 L 1142 400 L 1141 399 L 1137 399 L 1136 400 L 1133 400 L 1132 401 L 1129 402 L 1128 401 L 1128 384 L 1127 383 Z M 780 383 L 779 384 L 779 433 L 783 433 L 784 434 L 785 434 L 786 433 L 786 383 Z M 750 383 L 749 384 L 749 433 L 750 434 L 754 434 L 755 433 L 756 433 L 756 384 L 755 383 Z M 470 383 L 465 383 L 464 384 L 464 433 L 465 434 L 466 433 L 471 433 L 471 384 Z M 433 383 L 433 433 L 440 433 L 440 384 L 439 383 Z M 244 383 L 237 383 L 236 384 L 233 385 L 231 387 L 231 388 L 229 391 L 229 399 L 228 400 L 223 400 L 223 405 L 224 406 L 228 406 L 229 407 L 229 433 L 236 433 L 236 407 L 237 406 L 244 406 L 244 403 L 245 402 L 245 401 L 244 400 L 237 400 L 236 399 L 236 392 L 239 389 L 243 389 L 244 390 L 245 390 L 245 388 L 246 387 L 246 384 L 245 384 Z M 492 123 L 488 127 L 488 309 L 489 311 L 493 314 L 533 314 L 536 312 L 538 308 L 538 129 L 537 128 L 537 126 L 534 123 Z M 1004 46 L 1002 49 L 1003 312 L 1006 314 L 1049 314 L 1052 311 L 1053 201 L 1218 201 L 1219 312 L 1222 314 L 1267 313 L 1269 310 L 1268 47 L 1266 45 L 1222 45 L 1219 47 L 1219 156 L 1217 158 L 1053 158 L 1052 48 L 1049 45 Z M 636 74 L 621 101 L 618 130 L 625 157 L 649 185 L 675 197 L 699 201 L 852 202 L 873 217 L 878 229 L 878 243 L 868 261 L 845 272 L 636 272 L 628 281 L 628 306 L 633 313 L 848 314 L 881 306 L 898 296 L 911 283 L 925 253 L 925 217 L 914 191 L 892 171 L 854 159 L 697 158 L 682 152 L 674 144 L 667 122 L 674 103 L 684 94 L 700 88 L 915 88 L 919 84 L 917 46 L 698 45 L 665 53 Z M 489 49 L 489 50 L 488 51 L 488 83 L 489 84 L 489 86 L 491 88 L 492 88 L 493 89 L 531 89 L 532 88 L 533 88 L 535 86 L 536 86 L 536 85 L 538 82 L 538 52 L 537 51 L 537 49 L 534 46 L 533 46 L 532 45 L 494 45 L 493 46 L 492 46 Z M 52 308 L 52 312 L 55 314 L 101 314 L 109 309 L 219 94 L 225 90 L 230 90 L 236 94 L 346 308 L 355 314 L 401 314 L 403 312 L 275 62 L 260 46 L 240 40 L 208 41 L 194 47 L 183 58 Z" fill="#ffffff" fill-rule="evenodd"/>
</svg>
