<svg xmlns="http://www.w3.org/2000/svg" viewBox="0 0 1314 351" role="img" aria-label="AiSH wordmark black">
<title>AiSH wordmark black</title>
<path d="M 492 123 L 488 127 L 488 309 L 489 311 L 493 314 L 533 314 L 536 312 L 538 308 L 538 129 L 537 128 L 537 126 L 534 123 Z M 1004 46 L 1002 49 L 1003 312 L 1006 314 L 1049 314 L 1052 311 L 1053 201 L 1218 201 L 1219 312 L 1222 314 L 1267 313 L 1269 310 L 1268 47 L 1266 45 L 1222 45 L 1219 47 L 1219 156 L 1217 158 L 1053 158 L 1052 48 L 1049 45 Z M 636 74 L 621 101 L 618 130 L 625 157 L 649 185 L 675 197 L 699 201 L 852 202 L 873 217 L 878 229 L 878 243 L 868 261 L 845 272 L 636 272 L 628 281 L 628 306 L 633 313 L 848 314 L 881 306 L 898 296 L 911 283 L 925 253 L 925 217 L 914 191 L 892 171 L 854 159 L 697 158 L 682 152 L 674 144 L 667 122 L 674 103 L 684 94 L 700 88 L 915 88 L 919 84 L 917 46 L 698 45 L 665 53 Z M 489 49 L 489 50 L 488 51 L 488 83 L 489 84 L 489 86 L 491 88 L 492 88 L 493 89 L 531 89 L 532 88 L 533 88 L 535 86 L 536 86 L 536 85 L 538 82 L 538 52 L 537 51 L 537 49 L 534 46 L 533 46 L 532 45 L 494 45 L 493 46 L 492 46 Z M 52 308 L 52 312 L 55 314 L 101 314 L 109 309 L 219 94 L 225 90 L 230 90 L 236 94 L 346 308 L 355 314 L 401 314 L 403 312 L 275 62 L 260 46 L 240 40 L 208 41 L 194 47 L 183 58 Z" fill="#111111" fill-rule="evenodd"/>
</svg>
