<svg xmlns="http://www.w3.org/2000/svg" viewBox="0 0 582 644" role="img" aria-label="AiSH icon black">
<title>AiSH icon black</title>
<path d="M 186 606 L 187 608 L 215 608 L 228 602 L 232 598 L 274 533 L 280 527 L 284 525 L 298 524 L 305 527 L 312 534 L 351 595 L 357 602 L 363 606 L 369 608 L 398 608 L 399 607 L 385 584 L 332 504 L 320 495 L 308 491 L 278 491 L 267 494 L 256 501 L 250 508 Z M 246 390 L 246 406 L 247 406 L 248 407 L 339 407 L 340 406 L 340 389 L 339 388 L 248 388 Z M 367 353 L 367 355 L 385 355 L 388 352 L 389 349 L 395 341 L 395 340 L 398 336 L 399 333 L 401 331 L 401 330 L 403 328 L 403 327 L 405 325 L 405 324 L 407 322 L 407 321 L 409 319 L 409 318 L 411 316 L 411 315 L 413 313 L 413 312 L 416 309 L 418 309 L 421 313 L 422 316 L 426 321 L 427 324 L 432 330 L 432 331 L 435 335 L 436 338 L 438 340 L 438 341 L 440 343 L 440 344 L 442 346 L 442 347 L 444 349 L 444 350 L 447 354 L 448 354 L 449 355 L 466 355 L 467 354 L 465 352 L 464 349 L 462 347 L 462 346 L 456 338 L 455 335 L 453 333 L 453 332 L 451 330 L 450 327 L 444 319 L 443 316 L 437 308 L 436 305 L 430 297 L 430 296 L 427 292 L 426 289 L 423 286 L 422 286 L 421 285 L 413 285 L 408 288 L 408 289 L 404 294 L 403 297 L 397 305 L 396 308 L 394 310 L 394 311 L 392 313 L 391 316 L 389 318 L 389 319 L 387 321 L 387 322 L 381 330 L 380 333 L 376 338 L 375 341 L 373 343 L 373 344 L 371 346 L 371 347 L 369 349 L 369 350 Z M 121 353 L 121 355 L 139 355 L 143 351 L 143 350 L 149 342 L 150 339 L 152 337 L 152 336 L 154 334 L 155 331 L 157 329 L 157 328 L 159 326 L 159 325 L 165 317 L 165 316 L 168 312 L 168 311 L 170 309 L 172 309 L 173 310 L 173 311 L 176 314 L 177 317 L 179 319 L 179 320 L 181 322 L 181 323 L 187 331 L 188 334 L 190 336 L 190 337 L 192 339 L 192 340 L 198 348 L 199 351 L 203 355 L 205 355 L 206 356 L 209 356 L 210 355 L 221 355 L 221 353 L 220 352 L 220 351 L 218 349 L 218 348 L 216 346 L 215 343 L 213 341 L 213 340 L 207 332 L 206 329 L 200 321 L 199 318 L 195 313 L 194 310 L 192 308 L 192 307 L 190 305 L 190 304 L 184 296 L 183 293 L 181 291 L 181 290 L 177 286 L 176 286 L 175 285 L 167 285 L 166 286 L 165 286 L 162 289 L 162 290 L 156 298 L 155 301 L 151 306 L 150 309 L 148 311 L 148 312 L 142 320 L 141 323 L 135 331 L 134 334 L 132 336 L 132 337 L 126 345 L 125 348 Z M 284 35 L 62 162 L 43 182 L 36 203 L 37 441 L 58 473 L 181 546 L 188 544 L 203 515 L 89 449 L 75 434 L 73 210 L 85 192 L 281 76 L 301 75 L 495 189 L 511 210 L 511 428 L 499 446 L 380 516 L 401 547 L 526 473 L 543 451 L 547 437 L 546 198 L 535 174 L 520 161 L 318 41 Z" fill="#111111" fill-rule="evenodd"/>
</svg>
