<svg xmlns="http://www.w3.org/2000/svg" viewBox="0 0 1936 642" role="img" aria-label="AiSH full-horizontal black">
<title>AiSH full-horizontal black</title>
<path d="M 1428 508 L 1428 541 L 1435 541 L 1435 508 Z M 1142 508 L 1135 508 L 1135 509 L 1133 512 L 1133 514 L 1131 517 L 1131 519 L 1129 522 L 1129 524 L 1127 527 L 1127 529 L 1126 530 L 1125 530 L 1123 527 L 1123 525 L 1122 524 L 1122 523 L 1121 522 L 1121 520 L 1119 517 L 1119 515 L 1118 514 L 1118 512 L 1117 511 L 1117 509 L 1116 508 L 1109 508 L 1109 510 L 1110 511 L 1110 513 L 1112 516 L 1112 518 L 1114 521 L 1114 523 L 1115 524 L 1115 525 L 1116 526 L 1116 528 L 1118 531 L 1118 533 L 1119 534 L 1119 536 L 1121 539 L 1121 544 L 1120 545 L 1120 547 L 1119 548 L 1119 549 L 1117 551 L 1111 551 L 1111 552 L 1109 555 L 1109 556 L 1110 557 L 1113 557 L 1114 558 L 1117 558 L 1118 557 L 1120 557 L 1125 552 L 1125 551 L 1126 550 L 1126 548 L 1128 545 L 1128 543 L 1129 542 L 1129 540 L 1131 537 L 1131 535 L 1133 532 L 1133 530 L 1136 525 L 1136 523 L 1138 520 L 1138 518 L 1139 517 L 1139 515 L 1141 512 L 1141 510 L 1142 509 Z M 968 508 L 968 541 L 969 542 L 974 542 L 975 541 L 975 509 L 974 508 Z M 887 508 L 887 513 L 886 514 L 886 525 L 887 526 L 887 530 L 886 531 L 886 540 L 887 541 L 891 541 L 892 542 L 894 540 L 894 537 L 893 536 L 893 529 L 894 528 L 894 526 L 893 525 L 893 519 L 894 518 L 894 513 L 893 512 L 893 508 Z M 813 508 L 813 541 L 814 542 L 815 541 L 818 541 L 819 542 L 820 541 L 820 508 Z M 1800 508 L 1799 509 L 1796 510 L 1793 513 L 1793 514 L 1791 516 L 1791 518 L 1790 519 L 1790 522 L 1789 523 L 1789 527 L 1790 528 L 1790 531 L 1791 532 L 1792 535 L 1797 540 L 1798 540 L 1801 542 L 1811 542 L 1812 541 L 1814 541 L 1820 537 L 1820 536 L 1816 532 L 1814 534 L 1813 534 L 1810 536 L 1804 536 L 1799 533 L 1799 532 L 1798 531 L 1797 528 L 1798 527 L 1821 527 L 1821 518 L 1820 517 L 1819 514 L 1814 509 L 1813 509 L 1812 508 L 1809 508 L 1808 507 L 1804 507 L 1803 508 Z M 1797 519 L 1798 518 L 1798 517 L 1801 514 L 1802 514 L 1803 513 L 1809 513 L 1810 514 L 1811 514 L 1813 516 L 1813 517 L 1814 518 L 1814 521 L 1813 522 L 1798 522 L 1797 521 Z M 1588 509 L 1587 509 L 1586 508 L 1584 508 L 1583 507 L 1579 507 L 1578 508 L 1575 508 L 1572 511 L 1571 511 L 1570 510 L 1570 508 L 1563 508 L 1563 541 L 1564 542 L 1565 541 L 1570 541 L 1570 521 L 1571 520 L 1571 518 L 1575 514 L 1576 514 L 1577 513 L 1580 513 L 1581 514 L 1582 514 L 1585 517 L 1585 518 L 1586 519 L 1586 541 L 1593 541 L 1593 518 L 1592 517 L 1592 514 L 1591 513 L 1591 512 Z M 1524 507 L 1523 508 L 1521 508 L 1520 509 L 1519 509 L 1513 515 L 1513 516 L 1512 517 L 1512 519 L 1511 520 L 1511 529 L 1512 530 L 1512 533 L 1514 535 L 1514 536 L 1518 540 L 1519 540 L 1520 541 L 1522 541 L 1523 542 L 1532 542 L 1533 541 L 1535 541 L 1536 540 L 1539 539 L 1541 537 L 1541 536 L 1537 532 L 1534 535 L 1532 535 L 1531 536 L 1525 536 L 1520 533 L 1520 532 L 1519 531 L 1518 528 L 1519 527 L 1542 527 L 1542 518 L 1541 517 L 1540 514 L 1535 509 L 1534 509 L 1533 508 L 1531 508 L 1530 507 Z M 1518 519 L 1519 518 L 1519 517 L 1522 514 L 1523 514 L 1524 513 L 1529 513 L 1534 516 L 1534 517 L 1535 518 L 1535 521 L 1534 522 L 1519 522 L 1518 521 Z M 1489 508 L 1483 508 L 1483 510 L 1482 511 L 1481 511 L 1478 508 L 1475 508 L 1474 507 L 1469 507 L 1468 508 L 1466 508 L 1465 509 L 1464 509 L 1459 514 L 1459 515 L 1457 518 L 1457 522 L 1456 523 L 1456 525 L 1457 526 L 1457 530 L 1458 531 L 1458 533 L 1459 534 L 1459 535 L 1463 539 L 1464 539 L 1469 542 L 1475 542 L 1476 541 L 1479 540 L 1481 538 L 1482 538 L 1483 539 L 1483 544 L 1482 545 L 1482 546 L 1478 550 L 1477 550 L 1476 551 L 1469 551 L 1468 550 L 1466 550 L 1465 549 L 1462 548 L 1459 551 L 1459 553 L 1460 553 L 1462 555 L 1463 555 L 1466 557 L 1469 557 L 1470 558 L 1475 558 L 1476 557 L 1479 557 L 1480 556 L 1483 555 L 1487 551 L 1487 550 L 1488 549 L 1488 547 L 1489 546 L 1489 543 L 1490 542 L 1490 541 L 1489 540 L 1489 539 L 1490 538 L 1490 527 L 1489 526 Z M 1472 513 L 1475 513 L 1476 514 L 1479 515 L 1481 517 L 1481 518 L 1483 521 L 1483 527 L 1482 528 L 1482 530 L 1478 534 L 1477 534 L 1476 535 L 1470 535 L 1469 534 L 1468 534 L 1465 531 L 1465 530 L 1464 529 L 1464 520 L 1465 519 L 1465 518 L 1469 514 L 1471 514 Z M 1324 508 L 1322 510 L 1321 510 L 1317 514 L 1317 515 L 1315 518 L 1315 521 L 1314 522 L 1314 529 L 1315 530 L 1315 532 L 1316 533 L 1317 536 L 1320 539 L 1321 539 L 1323 541 L 1325 541 L 1326 542 L 1337 542 L 1338 541 L 1341 540 L 1343 538 L 1344 538 L 1344 536 L 1342 534 L 1342 533 L 1341 532 L 1340 533 L 1339 533 L 1337 535 L 1335 535 L 1334 536 L 1328 536 L 1327 535 L 1326 535 L 1322 531 L 1322 528 L 1323 527 L 1345 527 L 1346 526 L 1346 521 L 1345 520 L 1345 517 L 1344 516 L 1344 515 L 1342 513 L 1342 512 L 1337 508 L 1334 508 L 1333 507 L 1328 507 L 1327 508 Z M 1322 518 L 1326 514 L 1327 514 L 1328 513 L 1333 513 L 1334 514 L 1335 514 L 1337 516 L 1337 517 L 1338 518 L 1339 521 L 1338 522 L 1323 522 L 1322 521 Z M 1251 510 L 1250 510 L 1248 508 L 1245 508 L 1244 507 L 1240 507 L 1239 508 L 1237 508 L 1234 510 L 1233 510 L 1232 509 L 1232 508 L 1225 508 L 1225 541 L 1226 542 L 1230 542 L 1231 541 L 1232 541 L 1232 520 L 1233 519 L 1234 516 L 1236 514 L 1238 514 L 1239 513 L 1242 513 L 1243 514 L 1244 514 L 1246 516 L 1246 517 L 1247 518 L 1247 541 L 1254 541 L 1254 531 L 1255 530 L 1255 523 L 1254 522 L 1254 515 Z M 1000 511 L 1000 513 L 1002 516 L 1003 516 L 1006 514 L 1008 514 L 1009 513 L 1014 513 L 1015 514 L 1016 514 L 1019 517 L 1019 518 L 1020 519 L 1020 520 L 1019 521 L 1006 521 L 1005 522 L 1003 522 L 1001 524 L 1000 524 L 1000 525 L 998 527 L 998 529 L 997 530 L 997 533 L 998 534 L 998 536 L 1000 538 L 1000 539 L 1005 542 L 1014 542 L 1015 541 L 1016 541 L 1018 539 L 1019 539 L 1020 540 L 1020 541 L 1027 541 L 1027 518 L 1026 517 L 1026 515 L 1025 514 L 1025 513 L 1021 509 L 1020 509 L 1019 508 L 1016 508 L 1015 507 L 1010 507 L 1009 508 L 1006 508 L 1005 509 L 1003 509 L 1001 511 Z M 1004 533 L 1004 530 L 1007 527 L 1008 527 L 1009 526 L 1019 526 L 1020 527 L 1020 530 L 1019 531 L 1019 532 L 1016 535 L 1015 535 L 1014 536 L 1007 536 Z M 930 507 L 929 508 L 927 508 L 926 509 L 923 510 L 919 514 L 919 515 L 917 518 L 917 521 L 916 522 L 916 527 L 917 528 L 917 531 L 918 532 L 918 534 L 924 540 L 925 540 L 926 541 L 928 541 L 929 542 L 938 542 L 939 541 L 942 540 L 944 538 L 945 538 L 945 536 L 943 534 L 943 533 L 942 532 L 941 532 L 938 535 L 936 535 L 935 536 L 931 536 L 930 535 L 929 535 L 925 531 L 925 530 L 924 529 L 924 520 L 925 519 L 925 518 L 929 514 L 931 514 L 932 513 L 934 513 L 935 514 L 937 514 L 938 515 L 939 515 L 941 517 L 942 517 L 943 516 L 943 515 L 945 513 L 945 512 L 942 509 L 941 509 L 940 508 L 937 508 L 936 507 Z M 752 507 L 749 507 L 748 508 L 746 508 L 743 511 L 742 511 L 741 510 L 741 508 L 735 508 L 734 509 L 734 541 L 739 541 L 740 542 L 741 541 L 741 522 L 742 521 L 742 519 L 743 518 L 743 517 L 745 515 L 746 515 L 747 514 L 753 514 L 753 508 Z M 1619 499 L 1618 500 L 1618 507 L 1617 508 L 1613 508 L 1613 514 L 1617 514 L 1618 515 L 1618 534 L 1619 535 L 1619 537 L 1620 538 L 1620 539 L 1622 541 L 1623 541 L 1624 542 L 1632 542 L 1635 540 L 1635 538 L 1634 537 L 1634 535 L 1633 535 L 1632 536 L 1628 536 L 1625 533 L 1625 515 L 1626 514 L 1634 514 L 1634 508 L 1626 508 L 1625 507 L 1625 499 Z M 1280 499 L 1279 500 L 1279 507 L 1278 508 L 1275 508 L 1274 509 L 1274 513 L 1275 514 L 1278 514 L 1279 515 L 1279 533 L 1280 534 L 1280 537 L 1281 538 L 1281 539 L 1282 540 L 1283 540 L 1285 542 L 1293 542 L 1294 541 L 1296 541 L 1296 537 L 1295 536 L 1295 535 L 1294 535 L 1293 536 L 1289 536 L 1287 534 L 1287 515 L 1288 514 L 1295 514 L 1295 508 L 1288 508 L 1287 507 L 1287 503 L 1286 502 L 1286 499 Z M 776 499 L 776 500 L 775 501 L 776 502 L 776 505 L 775 506 L 775 507 L 774 508 L 770 508 L 770 514 L 774 514 L 775 515 L 775 533 L 776 534 L 776 537 L 777 538 L 777 539 L 779 541 L 780 541 L 781 542 L 789 542 L 792 540 L 792 537 L 791 536 L 791 535 L 790 535 L 789 536 L 785 536 L 783 534 L 783 533 L 782 532 L 782 515 L 783 514 L 791 514 L 791 508 L 783 508 L 782 507 L 782 499 Z M 1200 494 L 1194 494 L 1193 495 L 1193 541 L 1194 541 L 1195 542 L 1196 541 L 1200 541 L 1201 540 L 1201 534 L 1200 533 L 1200 530 L 1201 529 L 1201 528 L 1200 527 L 1200 523 L 1201 522 L 1201 495 Z M 689 494 L 687 496 L 687 497 L 686 498 L 686 500 L 685 501 L 685 502 L 684 503 L 684 505 L 681 510 L 681 512 L 680 513 L 680 515 L 679 516 L 679 517 L 678 518 L 678 520 L 675 525 L 675 527 L 673 530 L 673 532 L 671 535 L 671 537 L 670 538 L 669 541 L 670 542 L 675 542 L 676 541 L 677 541 L 677 539 L 679 536 L 679 534 L 680 533 L 680 532 L 682 530 L 702 530 L 705 535 L 705 537 L 706 538 L 706 540 L 708 542 L 714 542 L 715 541 L 714 540 L 714 538 L 713 537 L 713 536 L 712 535 L 712 533 L 709 528 L 709 526 L 708 525 L 708 523 L 705 518 L 705 516 L 703 513 L 703 511 L 701 508 L 701 506 L 699 503 L 699 501 L 698 500 L 698 498 L 697 497 L 697 496 L 695 494 Z M 691 505 L 693 505 L 694 506 L 694 508 L 695 509 L 695 511 L 696 512 L 696 514 L 697 515 L 697 516 L 698 517 L 698 519 L 699 520 L 699 522 L 698 523 L 685 523 L 684 522 L 684 521 L 685 520 L 685 518 L 688 513 L 688 511 L 689 510 L 689 508 Z M 1697 493 L 1696 494 L 1693 494 L 1692 495 L 1691 495 L 1689 497 L 1688 497 L 1688 498 L 1686 500 L 1686 501 L 1685 502 L 1685 504 L 1684 505 L 1684 509 L 1685 510 L 1685 512 L 1686 513 L 1686 514 L 1689 517 L 1690 517 L 1695 520 L 1698 520 L 1701 522 L 1704 522 L 1705 523 L 1706 523 L 1708 525 L 1708 526 L 1709 527 L 1709 531 L 1705 535 L 1703 535 L 1702 536 L 1699 536 L 1698 535 L 1695 535 L 1694 534 L 1692 534 L 1690 532 L 1689 532 L 1688 531 L 1687 531 L 1683 535 L 1687 539 L 1688 539 L 1691 541 L 1693 541 L 1694 542 L 1706 542 L 1707 541 L 1710 540 L 1715 536 L 1715 535 L 1716 534 L 1716 532 L 1717 531 L 1717 524 L 1716 523 L 1716 522 L 1712 518 L 1711 518 L 1706 515 L 1704 515 L 1703 514 L 1701 514 L 1700 513 L 1698 513 L 1697 512 L 1694 511 L 1692 508 L 1692 504 L 1696 500 L 1705 500 L 1710 503 L 1712 503 L 1712 502 L 1715 499 L 1715 497 L 1714 497 L 1709 494 L 1706 494 L 1705 493 Z M 1431 492 L 1428 494 L 1428 495 L 1427 496 L 1427 498 L 1430 501 L 1433 501 L 1436 498 L 1436 495 L 1433 492 Z M 970 492 L 967 495 L 967 498 L 970 501 L 973 501 L 975 499 L 976 496 L 975 495 L 975 494 L 973 492 Z M 888 492 L 886 494 L 886 499 L 889 501 L 891 501 L 894 499 L 895 496 L 894 495 L 894 494 L 892 492 Z M 815 492 L 812 495 L 812 498 L 815 501 L 818 501 L 821 498 L 821 495 L 818 492 Z M 1874 491 L 1873 492 L 1873 541 L 1880 541 L 1880 492 L 1879 491 Z M 1843 491 L 1842 492 L 1842 541 L 1843 541 L 1844 542 L 1848 542 L 1849 541 L 1849 491 Z M 1740 491 L 1739 492 L 1739 541 L 1740 542 L 1741 541 L 1746 541 L 1746 520 L 1747 519 L 1748 516 L 1753 513 L 1756 513 L 1757 514 L 1758 514 L 1761 517 L 1761 519 L 1762 520 L 1762 541 L 1763 542 L 1764 541 L 1766 541 L 1767 542 L 1768 541 L 1769 541 L 1769 518 L 1768 517 L 1768 514 L 1767 513 L 1767 512 L 1764 509 L 1763 509 L 1762 508 L 1760 508 L 1759 507 L 1755 507 L 1754 508 L 1751 508 L 1750 509 L 1747 510 L 1746 509 L 1746 492 L 1745 491 Z M 1398 491 L 1397 492 L 1397 541 L 1401 541 L 1402 542 L 1403 542 L 1404 541 L 1404 491 Z M 1368 491 L 1367 492 L 1367 541 L 1368 542 L 1372 542 L 1373 541 L 1374 541 L 1374 492 L 1373 491 Z M 1088 491 L 1083 491 L 1082 492 L 1082 541 L 1083 542 L 1084 541 L 1089 541 L 1089 492 Z M 1051 491 L 1051 541 L 1058 541 L 1058 492 L 1057 491 Z M 862 491 L 855 491 L 854 492 L 851 493 L 849 495 L 849 496 L 847 499 L 847 507 L 846 508 L 841 508 L 841 513 L 842 514 L 846 514 L 847 515 L 847 541 L 854 541 L 854 515 L 855 514 L 862 514 L 862 511 L 863 510 L 863 509 L 862 508 L 855 508 L 854 507 L 854 500 L 857 497 L 861 497 L 862 498 L 863 498 L 863 496 L 864 495 L 864 492 L 863 492 Z M 186 606 L 187 608 L 215 608 L 228 602 L 232 598 L 274 533 L 280 527 L 284 525 L 298 524 L 305 527 L 312 534 L 351 595 L 357 602 L 363 606 L 369 608 L 398 608 L 399 607 L 385 584 L 332 504 L 320 495 L 308 491 L 278 491 L 267 494 L 256 501 L 250 508 Z M 246 390 L 246 406 L 247 406 L 248 407 L 339 407 L 340 406 L 340 389 L 339 388 L 248 388 Z M 367 353 L 367 355 L 385 355 L 388 352 L 389 349 L 395 341 L 395 340 L 398 336 L 399 333 L 401 331 L 401 330 L 403 328 L 403 327 L 405 325 L 405 324 L 407 322 L 407 321 L 409 319 L 409 318 L 411 316 L 411 315 L 413 313 L 413 312 L 416 309 L 418 309 L 421 313 L 422 316 L 426 321 L 427 324 L 432 330 L 432 331 L 435 335 L 436 338 L 438 340 L 438 341 L 440 343 L 440 344 L 442 346 L 442 347 L 444 349 L 444 350 L 447 354 L 448 354 L 449 355 L 466 355 L 467 354 L 465 352 L 464 349 L 462 347 L 462 346 L 456 338 L 455 335 L 453 333 L 453 332 L 451 330 L 450 327 L 444 319 L 443 316 L 437 308 L 436 305 L 430 297 L 430 296 L 427 292 L 426 289 L 423 286 L 422 286 L 421 285 L 413 285 L 408 288 L 408 289 L 404 294 L 403 297 L 397 305 L 396 308 L 394 310 L 394 311 L 392 313 L 391 316 L 389 318 L 389 319 L 387 321 L 387 322 L 381 330 L 380 333 L 376 338 L 375 341 L 373 343 L 373 344 L 371 346 L 371 347 L 369 349 L 369 350 Z M 121 353 L 121 355 L 139 355 L 143 351 L 143 350 L 149 342 L 150 339 L 152 337 L 152 336 L 154 334 L 155 331 L 157 329 L 157 328 L 159 326 L 159 325 L 165 317 L 165 316 L 168 312 L 168 311 L 170 309 L 172 309 L 173 310 L 173 311 L 176 314 L 177 317 L 179 319 L 179 320 L 181 322 L 181 323 L 187 331 L 188 334 L 190 336 L 190 337 L 192 339 L 192 340 L 198 348 L 199 351 L 203 355 L 205 355 L 206 356 L 209 356 L 210 355 L 221 355 L 221 353 L 220 352 L 220 351 L 218 349 L 218 348 L 216 346 L 215 343 L 213 341 L 213 340 L 207 332 L 206 329 L 200 321 L 199 318 L 195 313 L 194 310 L 192 308 L 192 307 L 190 305 L 190 304 L 184 296 L 183 293 L 181 291 L 181 290 L 177 286 L 176 286 L 175 285 L 167 285 L 166 286 L 165 286 L 162 289 L 162 290 L 156 298 L 155 301 L 151 306 L 150 309 L 148 311 L 148 312 L 142 320 L 141 323 L 135 331 L 134 334 L 132 336 L 132 337 L 126 345 L 125 348 Z M 1110 231 L 1106 235 L 1106 417 L 1107 419 L 1111 422 L 1151 422 L 1154 420 L 1156 416 L 1156 237 L 1155 236 L 1155 234 L 1152 231 Z M 1622 154 L 1620 157 L 1621 420 L 1624 422 L 1667 422 L 1670 419 L 1671 309 L 1836 309 L 1837 420 L 1840 422 L 1885 421 L 1887 418 L 1886 155 L 1884 153 L 1840 153 L 1837 155 L 1837 264 L 1835 266 L 1671 266 L 1670 156 L 1667 153 Z M 1254 182 L 1239 209 L 1236 238 L 1243 265 L 1267 293 L 1293 305 L 1317 309 L 1470 310 L 1491 325 L 1496 337 L 1496 351 L 1486 369 L 1463 380 L 1254 380 L 1246 389 L 1246 414 L 1251 421 L 1466 422 L 1499 414 L 1516 404 L 1529 391 L 1543 361 L 1543 325 L 1532 299 L 1510 279 L 1472 267 L 1315 266 L 1300 260 L 1292 252 L 1285 230 L 1292 211 L 1302 202 L 1318 196 L 1533 196 L 1537 192 L 1535 154 L 1316 153 L 1283 161 Z M 1107 157 L 1107 158 L 1106 159 L 1106 191 L 1107 192 L 1107 194 L 1109 196 L 1110 196 L 1111 197 L 1149 197 L 1150 196 L 1151 196 L 1153 194 L 1154 194 L 1154 193 L 1156 190 L 1156 160 L 1155 159 L 1155 157 L 1152 154 L 1151 154 L 1150 153 L 1112 153 L 1111 154 L 1110 154 Z M 670 416 L 670 420 L 673 422 L 719 422 L 727 417 L 837 202 L 843 198 L 848 198 L 854 202 L 964 416 L 973 422 L 1019 422 L 1021 420 L 893 170 L 878 154 L 858 148 L 826 149 L 812 155 L 801 166 Z M 284 35 L 62 162 L 43 182 L 36 203 L 37 441 L 58 473 L 181 546 L 188 544 L 203 515 L 89 449 L 75 434 L 73 210 L 85 192 L 281 76 L 301 75 L 495 189 L 511 210 L 511 428 L 499 446 L 380 516 L 401 547 L 526 473 L 543 451 L 547 437 L 546 198 L 535 174 L 520 161 L 318 41 Z" fill="#111111" fill-rule="evenodd"/>
</svg>
