<svg xmlns="http://www.w3.org/2000/svg" viewBox="0 0 24 24" role="img" aria-label="GitHub logo">
  <path fill="currentColor" d="M12 2.2c-5.5 0-9.9 4.4-9.9 9.9 0 4.4 2.9 8.2 6.9 9.4.5.1.7-.2.7-.5v-1.8c-2.8.6-3.4-1.2-3.4-1.2-.5-1.1-1.1-1.4-1.1-1.4-.9-.6.1-.6.1-.6 1 0 1.6 1.1 1.6 1.1.9 1.5 2.4 1.1 2.9.8.1-.7.4-1.1.7-1.4-2.2-.3-4.6-1.1-4.6-4.9 0-1.1.4-2 1.1-2.7-.1-.3-.5-1.3.1-2.7 0 0 .9-.3 2.7 1 .8-.2 1.6-.3 2.5-.3.8 0 1.7.1 2.5.3 1.9-1.3 2.7-1 2.7-1 .5 1.4.2 2.4.1 2.7.7.8 1.1 1.7 1.1 2.7 0 3.8-2.3 4.6-4.6 4.9.4.3.7 1 .7 2v3c0 .3.2.6.7.5 4-1.3 6.9-5 6.9-9.4 0-5.5-4.4-9.9-9.9-9.9Z"/>
</svg>
