<svg xmlns="http://www.w3.org/2000/svg" viewBox="0 0 64 64" role="img" aria-label="macOS icon">
  <defs>
    <mask id="bite">
      <rect width="64" height="64" fill="white"/>
      <circle cx="48.5" cy="29" r="7.4" fill="black"/>
    </mask>
  </defs>
  <path fill="#15110e" d="M40.8 7.2c-4.9.9-8.8 4.7-9.4 9.8 5.1-.1 9.3-4 9.4-9.8Z"/>
  <path fill="#15110e" mask="url(#bite)" d="M32 19.4c-2.5 0-4.2-1.5-7.2-1.5-6.8 0-11.5 6.8-11.5 16 0 12.3 7.6 22.8 13.6 22.8 2.2 0 3.6-1.4 5.1-1.4s2.9 1.4 5.1 1.4c6 0 13.6-10.5 13.6-22.8 0-9.2-4.7-16-11.5-16-3 0-4.7 1.5-7.2 1.5Z"/>
</svg>
