<svg xmlns="http://www.w3.org/2000/svg" viewBox="0 0 64 64" role="img" aria-label="Linux penguin icon">
  <path fill="#15110e" d="M32 7c-7.3 0-12.5 6.7-12.5 16.2 0 4.7-2.3 8-4.7 11.4-2 2.8-4.1 5.7-4.1 9.2 0 7.7 7.7 13.2 21.3 13.2s21.3-5.5 21.3-13.2c0-3.5-2.1-6.4-4.1-9.2-2.4-3.4-4.7-6.7-4.7-11.4C44.5 13.7 39.3 7 32 7Z"/>
  <path fill="#f7efe2" d="M24 31.5c-3.8 3-5.9 7.6-5.9 12 0 5.3 5.1 8 13.9 8s13.9-2.7 13.9-8c0-4.4-2.1-9-5.9-12-2 2.1-4.6 3.4-8 3.4s-6-1.3-8-3.4Z"/>
  <circle cx="27.4" cy="22.5" r="2.4" fill="#f7efe2"/>
  <circle cx="36.6" cy="22.5" r="2.4" fill="#f7efe2"/>
  <path fill="#d7a64b" d="M27.8 30.2c1.8-1.4 6.6-1.4 8.4 0-1.4 2.4-7 2.4-8.4 0Z"/>
</svg>
